<svg width="67" height="25" viewBox="0 0 67 25" fill="none" xmlns="http://www.w3.org/2000/svg">
<path d="M9 7V8M9 20.5C9 19.5 9.5 17.5 11.5 17.5C13.5 17.5 16.3333 17.5 17.5 17.5V5.5H11.5C10.6667 5.5 9 6 9 8M9 20.5V8M9 20.5C9 18.1 7.33333 17.5 6.5 17.5H1V5.5C2 5.5 4.5 5.5 6.5 5.5C8.5 5.5 9 7.16667 9 8" stroke="black" stroke-width="1.5" stroke-linejoin="round"/>
<path d="M9 7V8M9 20.5C9 19.5 9.5 17.5 11.5 17.5C13.5 17.5 16.3333 17.5 17.5 17.5V5.5H11.5C10.6667 5.5 9 6 9 8M9 20.5V8M9 20.5C9 18.1 7.33333 17.5 6.5 17.5H1V5.5C2 5.5 4.5 5.5 6.5 5.5C8.5 5.5 9 7.16667 9 8" stroke="#A3A3A3" stroke-width="1.5" stroke-linejoin="round"/>
<path d="M27.6421 20V6.69629H31.4829C36.3875 6.69629 38.8398 8.85791 38.8398 13.1812C38.8398 15.2345 38.1595 16.8859 36.7988 18.1353C35.4382 19.3784 33.6136 20 31.3252 20H27.6421ZM29.8408 8.57031V18.1353H31.6035C33.1559 18.1353 34.362 17.7085 35.2217 16.855C36.0876 16.0015 36.5205 14.7954 36.5205 13.2368C36.5205 10.1258 34.9093 8.57031 31.687 8.57031H29.8408ZM44.8705 20.2227C43.4047 20.2227 42.2326 19.7804 41.3544 18.896C40.4823 18.0054 40.0463 16.8271 40.0463 15.3613C40.0463 13.7656 40.5009 12.5194 41.41 11.6226C42.3254 10.7257 43.5562 10.2773 45.1024 10.2773C46.5868 10.2773 47.7434 10.7134 48.5721 11.5854C49.4009 12.4575 49.8153 13.6667 49.8153 15.2129C49.8153 16.7282 49.3669 17.9435 48.4701 18.8589C47.5795 19.7681 46.3796 20.2227 44.8705 20.2227ZM44.9725 11.9937C44.1314 11.9937 43.4665 12.2874 42.9779 12.875C42.4893 13.4626 42.245 14.2728 42.245 15.3057C42.245 16.3014 42.4924 17.0869 42.9872 17.6621C43.482 18.2311 44.1438 18.5156 44.9725 18.5156C45.8199 18.5156 46.4693 18.2342 46.9208 17.6714C47.3785 17.1086 47.6073 16.3076 47.6073 15.2686C47.6073 14.2233 47.3785 13.4162 46.9208 12.8472C46.4693 12.2782 45.8199 11.9937 44.9725 11.9937ZM58.4343 19.564C57.6736 20.0031 56.7737 20.2227 55.7346 20.2227C54.3245 20.2227 53.1865 19.7835 52.3206 18.9053C51.4547 18.0208 51.0217 16.8766 51.0217 15.4727C51.0217 13.9079 51.4856 12.6523 52.4133 11.7061C53.3473 10.7536 54.5935 10.2773 56.1521 10.2773C57.018 10.2773 57.7818 10.4289 58.4436 10.7319V12.7358C57.7818 12.241 57.0768 11.9937 56.3284 11.9937C55.4192 11.9937 54.6739 12.3029 54.0925 12.9214C53.5112 13.5337 53.2205 14.3377 53.2205 15.3335C53.2205 16.3169 53.4926 17.0931 54.0369 17.6621C54.5873 18.2311 55.3233 18.5156 56.2449 18.5156C57.018 18.5156 57.7478 18.2404 58.4343 17.6899V19.564ZM59.6037 19.7031V17.7085C60.4077 18.3208 61.2952 18.627 62.2663 18.627C63.5651 18.627 64.2145 18.2435 64.2145 17.4766C64.2145 17.2601 64.1588 17.0776 64.0475 16.9292C63.9362 16.7746 63.7846 16.6385 63.5929 16.521C63.4074 16.4035 63.1847 16.2983 62.9249 16.2056C62.6714 16.1128 62.3869 16.0076 62.0714 15.8901C61.6818 15.7355 61.3292 15.5716 61.0138 15.3984C60.7046 15.2253 60.4448 15.0304 60.2345 14.814C60.0304 14.5913 59.8758 14.3408 59.7706 14.0625C59.6655 13.7842 59.6129 13.4595 59.6129 13.0884C59.6129 12.6307 59.7212 12.2287 59.9376 11.8823C60.1541 11.5298 60.4448 11.236 60.8097 11.001C61.1746 10.7598 61.589 10.5804 62.0529 10.4629C62.5167 10.3392 62.9961 10.2773 63.4909 10.2773C64.3691 10.2773 65.1546 10.4103 65.8473 10.6763V12.5596C65.1793 12.1019 64.4124 11.873 63.5465 11.873C63.2744 11.873 63.027 11.9009 62.8043 11.9565C62.5879 12.0122 62.4023 12.0895 62.2477 12.1885C62.0931 12.2874 61.9725 12.408 61.8859 12.5503C61.7993 12.6864 61.756 12.8379 61.756 13.0049C61.756 13.209 61.7993 13.3822 61.8859 13.5244C61.9725 13.6667 62.0993 13.7935 62.2663 13.9048C62.4394 14.0099 62.6435 14.1089 62.8786 14.2017C63.1198 14.2882 63.395 14.3841 63.7042 14.4893C64.1124 14.6562 64.4774 14.8263 64.799 14.9995C65.1268 15.1727 65.4051 15.3706 65.6339 15.5933C65.8628 15.8097 66.039 16.0633 66.1627 16.354C66.2864 16.6385 66.3483 16.9787 66.3483 17.3745C66.3483 17.8569 66.237 18.2775 66.0143 18.6362C65.7916 18.995 65.4948 19.2918 65.1237 19.5269C64.7526 19.7619 64.3227 19.9351 63.8341 20.0464C63.3517 20.1639 62.8414 20.2227 62.3034 20.2227C61.2643 20.2227 60.3644 20.0495 59.6037 19.7031Z" fill="#A3A3A3"/>
</svg>
