<svg width="91" height="41" viewBox="0 0 91 41" fill="none" xmlns="http://www.w3.org/2000/svg">
<path d="M90.08 29.5919H86.152V12.1529H90.08V29.5919Z" fill="white"/>
<path d="M84.4734 29.5919H80.1927L78.9522 25.7125H72.7501L71.5218 29.5919H67.2654L73.6135 12.1529H78.2712L84.4734 29.5919ZM78.0523 22.6966L76.1795 16.835C76.0417 16.3972 75.9444 15.8742 75.8876 15.2662H75.7904C75.7498 15.7769 75.6485 16.2837 75.4863 16.7863L73.5892 22.6966H78.0523Z" fill="white"/>
<path d="M60.4542 29.5919H49.9957V12.1529H60.0529V15.3513H53.9237V19.2307H59.6273V22.4169H53.9237V26.4057H60.4542V29.5919Z" fill="white"/>
<path d="M48.8521 29.5919H44.3403L41.6284 25.1045C41.4257 24.764 41.2311 24.46 41.0447 24.1924C40.8582 23.9249 40.6677 23.6979 40.4731 23.5114C40.2866 23.3168 40.088 23.1709 39.8772 23.0736C39.6745 22.9682 39.4516 22.9155 39.2083 22.9155H38.1503V29.5919H34.2223V12.1529H40.4488C44.6808 12.1529 46.7969 13.7339 46.7969 16.8958C46.7969 17.5038 46.7036 18.0673 46.5171 18.5862C46.3307 19.0969 46.0672 19.559 45.7267 19.9725C45.3862 20.386 44.9727 20.7427 44.4862 21.0427C44.0079 21.3427 43.4728 21.5778 42.881 21.748V21.7967C43.1404 21.8778 43.3917 22.0115 43.635 22.198C43.8782 22.3764 44.1133 22.5871 44.3403 22.8304C44.5673 23.0736 44.7822 23.3371 44.9848 23.6208C45.1956 23.8965 45.3862 24.1681 45.5564 24.4356L48.8521 29.5919ZM38.1503 15.0959V19.9482H39.8529C40.696 19.9482 41.373 19.705 41.8838 19.2185C42.4026 18.724 42.6621 18.1119 42.6621 17.3822C42.6621 15.858 41.75 15.0959 39.9258 15.0959H38.1503Z" fill="white"/>
<path d="M23.1917 29.896C20.6946 29.896 18.6597 29.0853 17.0868 27.4638C15.514 25.8342 14.7276 23.7142 14.7276 21.1036C14.7276 18.3471 15.5261 16.1175 17.1233 14.415C18.7205 12.7124 20.8365 11.8612 23.4714 11.8612C25.9604 11.8612 27.971 12.676 29.5033 14.3055C31.0437 15.9351 31.8139 18.0836 31.8139 20.7509C31.8139 23.4912 31.0153 25.7005 29.4182 27.3787C27.8291 29.0569 25.7536 29.896 23.1917 29.896ZM23.3619 15.2419C21.9837 15.2419 20.8892 15.7608 20.0784 16.7986C19.2677 17.8282 18.8623 19.1943 18.8623 20.8968C18.8623 22.6237 19.2677 23.9898 20.0784 24.9951C20.8892 26.0004 21.9513 26.5031 23.2646 26.5031C24.6186 26.5031 25.6928 26.0167 26.4873 25.0438C27.2819 24.0628 27.6791 22.7048 27.6791 20.9698C27.6791 19.1619 27.294 17.7552 26.5238 16.7499C25.7536 15.7446 24.6997 15.2419 23.3619 15.2419Z" fill="white"/>
<path d="M13.5961 28.9719C12.3232 29.588 10.6612 29.8961 8.61005 29.8961C5.93461 29.8961 3.83074 29.1097 2.29844 27.5369C0.766148 25.964 0 23.8683 0 21.2496C0 18.4607 0.859383 16.1987 2.57815 14.4637C4.30502 12.7287 6.54266 11.8612 9.29107 11.8612C10.9936 11.8612 12.4286 12.0761 13.5961 12.5058V16.2879C12.4286 15.5906 11.099 15.242 9.60725 15.242C7.96956 15.242 6.64806 15.7568 5.64274 16.7865C4.63743 17.8161 4.13477 19.2106 4.13477 20.9699C4.13477 22.6562 4.60905 24.0021 5.55761 25.0074C6.50618 26.0046 7.78309 26.5032 9.38835 26.5032C10.9207 26.5032 12.3232 26.1302 13.5961 25.3844V28.9719Z" fill="white"/>
<path fill-rule="evenodd" clip-rule="evenodd" d="M0.0834045 33.3654C0.319745 35.3238 1.05808 36.9395 2.2984 38.2127C3.83069 39.7855 5.93456 40.5719 8.61 40.5719C10.6612 40.5719 12.3232 40.2638 13.596 39.6477V36.0602C12.3232 36.806 10.9206 37.179 9.38831 37.179C7.78304 37.179 6.50613 36.6804 5.55757 35.6832C4.95726 35.0469 4.54691 34.2744 4.32651 33.3654H0.0834045ZM14.8324 33.3654C15.0941 35.2623 15.8456 36.8537 17.0868 38.1397C18.6596 39.7612 20.6945 40.5719 23.1916 40.5719C25.7536 40.5719 27.829 39.7328 29.4181 38.0546C30.6196 36.7921 31.3692 35.229 31.6668 33.3654H27.5261C27.3434 34.3054 26.9971 35.0901 26.4873 35.7197C25.6928 36.6925 24.6185 37.179 23.2646 37.179C21.9512 37.179 20.8891 36.6763 20.0784 35.671C19.5721 35.0432 19.2239 34.2746 19.0337 33.3654H14.8324ZM34.2222 33.3654V40.2679H38.1502V33.5915H39.2083C39.4515 33.5915 39.6744 33.6442 39.8771 33.7496C40.0879 33.8468 40.2865 33.9928 40.473 34.1874C40.6676 34.3738 40.8581 34.6008 41.0446 34.8684C41.231 35.1359 41.4256 35.4399 41.6283 35.7805L44.3402 40.2679H48.852L45.5563 35.1116C45.3861 34.8441 45.1956 34.5725 44.9848 34.2968C44.7821 34.013 44.5672 33.7496 44.3402 33.5063C44.2952 33.4581 44.2498 33.4111 44.2041 33.3654H34.2222ZM49.9956 33.3654V40.2679H60.4541V37.0817H53.9236V33.3654H49.9956ZM69.778 33.3654L67.2653 40.2679H71.5217L72.75 36.3885H78.9521L80.1926 40.2679H84.4733L82.0184 33.3654H78.0499L78.0522 33.3726H73.5891L73.5914 33.3654H69.778ZM86.152 33.3654V40.2679H90.08V33.3654H86.152Z" fill="white"/>
<path fill-rule="evenodd" clip-rule="evenodd" d="M31.7152 7.50214C31.4626 5.55634 30.7253 3.93707 29.5034 2.64433C27.9711 1.01474 25.9604 0.199951 23.4715 0.199951C20.8366 0.199951 18.7205 1.05123 17.1234 2.75378C15.9195 4.03714 15.1693 5.61993 14.8729 7.50214H19.0252C19.2133 6.57857 19.5644 5.79031 20.0785 5.13735C20.8893 4.0996 21.9838 3.58073 23.362 3.58073C24.6997 3.58073 25.7537 4.08339 26.5239 5.08871C27.0151 5.72992 27.3497 6.5344 27.5277 7.50214H31.7152ZM46.263 7.50214C46.3595 7.31722 46.4442 7.12485 46.5172 6.92503C46.7037 6.40616 46.7969 5.84269 46.7969 5.23464C46.7969 2.07276 44.6809 0.491817 40.4488 0.491817H34.2223V7.50214H38.1504V3.4348H39.9259C41.7501 3.4348 42.6621 4.19689 42.6621 5.72108C42.6621 6.42381 42.4215 7.01749 41.9402 7.50214H46.263ZM53.9238 7.50214H49.9958V0.491817H60.053V3.69018H53.9238V7.50214ZM80.7645 7.50214L78.2712 0.491817H73.6135L71.0617 7.50214H74.7234L75.4864 5.12519C75.6485 4.62253 75.7498 4.11582 75.7904 3.60505H75.8877C75.9444 4.21311 76.0417 4.73603 76.1795 5.17383L76.9234 7.50214H80.7645ZM90.0801 7.50214H86.1521V0.491817H90.0801V7.50214ZM0.177521 7.50214C0.510134 5.64882 1.31037 4.08225 2.57823 2.80242C4.30511 1.06744 6.54275 0.199951 9.29115 0.199951C10.9937 0.199951 12.4287 0.414797 13.5962 0.844488V4.62658C12.4287 3.92935 11.0991 3.58073 9.60734 3.58073C7.96965 3.58073 6.64814 4.09555 5.64283 5.12519C5.01026 5.77306 4.5767 6.56538 4.34216 7.50214H0.177521Z" fill="white"/>
</svg>
