<svg width="20" height="24" viewBox="0 0 20 24" fill="none" xmlns="http://www.w3.org/2000/svg">
<path d="M4.2246 2.63576C6.33321 0.527151 8.99407 0 10.0609 0V6.93705C9.23071 6.93705 8.83641 7.33284 8.74304 7.53073C4.82706 5.87397 2.84397 2.69851 2.34192 1.31788C2.79376 1.92034 3.78531 2.44749 4.2246 2.63576Z" fill="#A3A3A3"/>
<path d="M15.7584 2.63576C13.6498 0.527151 10.989 0 9.92211 0V6.93705C10.7523 6.93705 11.1466 7.33284 11.24 7.53073C15.156 5.87397 17.1391 2.69851 17.6411 1.31788C17.1893 1.92034 16.1977 2.44749 15.7584 2.63576Z" fill="#A3A3A3"/>
<path d="M5.44868 6.99571C6.04255 7.44348 7.37921 8.39157 7.97486 8.60183C6.84074 8.95712 4.74775 9.1333 5.44868 6.99571Z" fill="#A3A3A3"/>
<path d="M4.38294 6.06124C4.00915 5.7809 3.36086 4.88342 3.08344 4.46973C2.00507 5.5481 1.88789 7.67378 1.96409 8.60183C1.96409 15.6076 0.654698 18.8803 0 19.641L2.77368 17.5218L4.65166 20.6231L6.83576 18.7241L10.0004 24V22.2615L8.95852 18.7241C8.10565 14.9637 5.47479 13.2904 4.26597 12.9237L6.83576 11.4636L6.92337 10.2517C3.45415 10.2517 3.78424 7.45808 4.38294 6.06124Z" fill="#A3A3A3"/>
<path d="M14.5334 6.99571C13.9395 7.44348 12.6028 8.39157 12.0072 8.60183C13.1413 8.95712 15.2343 9.1333 14.5334 6.99571Z" fill="#A3A3A3"/>
<path d="M15.5991 6.06124C15.9729 5.7809 16.6212 4.88342 16.8986 4.46973C17.977 5.5481 18.0942 7.67378 18.018 8.60183C18.018 15.6076 19.3274 18.8803 19.9821 19.641L17.2084 17.5218L15.3304 20.6231L13.1463 18.7241L9.98168 24V22.2615L11.0235 18.7241C11.8764 14.9637 14.5073 13.2904 15.7161 12.9237L13.1463 11.4636L13.0587 10.2517C16.5279 10.2517 16.1978 7.45808 15.5991 6.06124Z" fill="#A3A3A3"/>
<path d="M8.30132 10.6151C8.30132 9.23017 9.48216 8.54845 10.0726 8.3807V18.0429C10.0726 15.5146 8.00605 13.5942 6.97278 12.9501L8.30132 12.1248V10.6151Z" fill="#A3A3A3"/>
<path d="M11.8404 10.6151C11.8404 9.23017 10.6596 8.54845 10.0691 8.3807V18.0429C10.0691 15.5146 12.1357 13.5942 13.1689 12.9501L11.8404 12.1248V10.6151Z" fill="#A3A3A3"/>
</svg>
