<svg width="23" height="19" viewBox="0 0 23 19" fill="none" xmlns="http://www.w3.org/2000/svg">
<path fill-rule="evenodd" clip-rule="evenodd" d="M20.6176 0.129985C20.9004 0.0148902 21.2099 -0.0248051 21.5139 0.0150299C21.818 0.054865 22.1054 0.172775 22.3463 0.356486C22.5873 0.540197 22.7729 0.782995 22.8838 1.05961C22.9948 1.33622 23.027 1.63653 22.9772 1.92929L20.3819 17.1526C20.1301 18.621 18.4639 19.4631 17.0713 18.7316C15.9063 18.1197 14.1761 17.1769 12.6197 16.1931C11.8416 15.7007 9.45791 14.1238 9.75086 13.0018C10.0026 12.0424 14.0078 8.4371 16.2965 6.29365C17.1948 5.45154 16.7852 4.96575 15.7244 5.74036C13.0901 7.6636 8.86056 10.5883 7.46217 11.4116C6.22856 12.1375 5.58543 12.2615 4.81643 12.1375C3.41346 11.9118 2.11234 11.5621 1.05038 11.1361C-0.384629 10.5606 -0.314824 8.65289 1.04924 8.09738L20.6176 0.129985Z" fill="black"/>
</svg>
